<svg width="512" height="512" viewBox="0 0 512 512" xmlns="http://www.w3.org/2000/svg">
  <defs>
    <linearGradient id="bg" x1="0" y1="0" x2="512" y2="512" gradientUnits="userSpaceOnUse">
      <stop offset="0" stop-color="#4338CA"/>
      <stop offset="1" stop-color="#7C3AED"/>
    </linearGradient>
  </defs>
  <rect width="512" height="512" rx="96" fill="url(#bg)"/>
  <!-- document -->
  <path d="M168 108h130l58 58v238a16 16 0 0 1-16 16H168a16 16 0 0 1-16-16V124a16 16 0 0 1 16-16z" fill="#FFFFFF" fill-opacity="0.96"/>
  <path d="M298 108l58 58h-42a16 16 0 0 1-16-16v-42z" fill="#E9E5FF"/>
  <rect x="184" y="216" width="112" height="14" rx="7" fill="#8B7FE8"/>
  <rect x="184" y="248" width="90" height="14" rx="7" fill="#C9C3F5"/>
  <!-- signature pen -->
  <path d="M232 356c26-40 46-64 66-78 10 34 24 54 46 66-30 6-72 10-112 12z" fill="#FBBF24" fill-opacity="0"/>
  <g transform="translate(238,300) rotate(45)">
    <rect x="-10" y="-92" width="20" height="130" rx="8" fill="#F59E0B"/>
    <rect x="-10" y="-92" width="20" height="28" rx="8" fill="#4338CA"/>
    <polygon points="-10,38 10,38 0,64" fill="#3F3F46"/>
  </g>
  <path d="M150 392c40 18 172 18 212 0" stroke="#4338CA" stroke-width="12" stroke-linecap="round" fill="none"/>
</svg>
